#N canvas 620 28 745 607 10;
#X obj 22 90 cnv 15 60 22 empty empty empty 20 12 0 14 -253938 -66577
0;
#N canvas 146 163 525 433 serin 0;
#X obj 180 61 cnv 15 15 15 empty \$0-number-canvas 2 4 8 0 14 -233017
-1 0;
#X obj 200 225 s \$0-number-canvas;
#X obj 60 61 hradio 15 1 1 8 empty empty empty 0 -6 0 8 -225271 -1
-1 2;
#X obj 60 13 inlet;
#X msg 200 202 label \$1;
#X obj 200 180 makefilename %d;
#X obj 59 108 int;
#X msg 59 206 open \$1;
#X obj 59 377 outlet;
#X msg 201 306 set \$1 \$2;
#X obj 59 266 trigger bang anything;
#X obj 201 286 list;
#X obj 383 383 outlet;
#X obj 384 22 netreceive 34567;
#X obj 477 43 tgl 15 0 empty empty empty 0 -6 0 10 -262144 -1 -1 0
1;
#X obj 384 41 bng 15 250 50 0 empty empty empty 0 -6 0 10 -262144 -1
-1;
#X obj 187 24 delay 15000;
#X text 345 379 close;
#X text 209 4 for open/close automation in Makefile;
#X obj 184 95 bang;
#X obj 184 137 send ARDUINO_TEST_RESET;
#X msg 184 116 set 0;
#X connect 2 0 6 0;
#X connect 2 0 19 0;
#X connect 3 0 2 0;
#X connect 4 0 1 0;
#X connect 5 0 4 0;
#X connect 6 0 5 0;
#X connect 6 0 7 0;
#X connect 7 0 10 0;
#X connect 9 0 8 0;
#X connect 10 0 8 0;
#X connect 10 1 11 0;
#X connect 11 0 9 0;
#X connect 13 0 15 0;
#X connect 13 1 14 0;
#X connect 15 0 16 0;
#X connect 15 0 12 0;
#X connect 16 0 2 0;
#X connect 19 0 21 0;
#X connect 21 0 20 0;
#X coords 0 -1 1 1 136 17 1 60 60;
#X restore 28 69 pd serin;
#X text 25 51 serial port #;
#X msg 88 92 close;
#X floatatom 22 446 5 0 0 3 a0 - -;
#X floatatom 68 446 5 0 0 3 a1 - -;
#X floatatom 114 446 5 0 0 3 a2 - -;
#X floatatom 160 446 5 0 0 3 a3 - -;
#X floatatom 206 446 5 0 0 3 a4 - -;
#X floatatom 252 446 5 0 0 3 a5 - -;
#X msg 121 132 info;
#X msg 121 152 version;
#X floatatom 298 446 5 0 0 3 a6 - -;
#X floatatom 344 446 5 0 0 3 a7 - -;
#X obj 121 389 route 0 1 2 3 4 5 6 7;
#N canvas 981 48 499 396 display 0;
#X obj 6 7 inlet;
#X obj 6 28 mapping/resample 100;
#X obj 6 50 outlet;
#X obj 54 50 inlet;
#X obj 54 71 mapping/resample 100;
#X obj 54 93 outlet;
#X obj 103 93 inlet;
#X obj 103 114 mapping/resample 100;
#X obj 103 136 outlet;
#X obj 151 136 inlet;
#X obj 151 157 mapping/resample 100;
#X obj 151 179 outlet;
#X obj 200 179 inlet;
#X obj 200 200 mapping/resample 100;
#X obj 200 222 outlet;
#X obj 247 222 inlet;
#X obj 247 243 mapping/resample 100;
#X obj 247 265 outlet;
#X obj 295 265 inlet;
#X obj 295 286 mapping/resample 100;
#X obj 295 308 outlet;
#X obj 345 308 inlet;
#X obj 345 329 mapping/resample 100;
#X obj 345 351 outlet;
#X obj 60 290 receive ARDUINO_TEST_RESET;
#X connect 0 0 1 0;
#X connect 1 0 2 0;
#X connect 3 0 4 0;
#X connect 4 0 5 0;
#X connect 6 0 7 0;
#X connect 7 0 8 0;
#X connect 9 0 10 0;
#X connect 10 0 11 0;
#X connect 12 0 13 0;
#X connect 13 0 14 0;
#X connect 15 0 16 0;
#X connect 16 0 17 0;
#X connect 18 0 19 0;
#X connect 19 0 20 0;
#X connect 21 0 22 0;
#X connect 22 0 23 0;
#X connect 24 0 22 0;
#X connect 24 0 19 0;
#X connect 24 0 16 0;
#X connect 24 0 13 0;
#X connect 24 0 10 0;
#X connect 24 0 7 0;
#X connect 24 0 4 0;
#X connect 24 0 1 0;
#X restore 45 420 pd display values without pegging the CPU;
#X text 2 504 (C) Copyright 2006 Free Software Foundation;
#N canvas 3 48 451 224 ver 0;
#X obj 23 7 inlet;
#X obj 250 100 cnv 15 145 17 empty \$0-version_cnv empty 4 10 0 12
-203904 -1 0;
#X obj 23 157 send \$0-version_cnv;
#X msg 23 132 label \$1;
#X obj 48 103 symbol;
#X obj 38 77 loadbang;
#X msg 96 78 bang;
#X obj 309 163 outlet;
#X obj 23 52 zexy/makesymbol Firmata-%s.%s;
#X obj 23 29 route version bang;
#X connect 0 0 9 0;
#X connect 3 0 2 0;
#X connect 4 0 3 0;
#X connect 5 0 4 0;
#X connect 6 0 4 0;
#X connect 8 0 3 0;
#X connect 9 0 8 0;
#X connect 9 1 7 0;
#X connect 9 1 6 0;
#X connect 9 2 7 0;
#X coords 0 -1 1 1 145 17 1 250 100;
#X restore 397 337 pd ver;
#X obj 121 292 arduino 1;
#N canvas 649 518 411 212 firmware 0;
#X obj 123 2 inlet;
#X obj 250 100 cnv 15 145 17 empty \$0-firmware_cnv empty 4 10 0 12
-232576 -66577 0;
#X msg 123 156 label \$1;
#X obj 148 127 symbol;
#X obj 138 101 loadbang;
#X msg 196 102 bang;
#X obj 123 181 send \$0-firmware_cnv;
#X obj 123 24 route firmware;
#X obj 18 181 print Firmware;
#X obj 123 49 list;
#X obj 123 80 zexy/makesymbol %s-%s.%s;
#X obj 18 151 list trim;
#X obj 204 45 route bang;
#X connect 0 0 7 0;
#X connect 2 0 6 0;
#X connect 3 0 2 0;
#X connect 4 0 3 0;
#X connect 5 0 3 0;
#X connect 7 0 9 0;
#X connect 7 1 12 0;
#X connect 9 0 10 0;
#X connect 10 0 2 0;
#X connect 10 0 11 0;
#X connect 11 0 8 0;
#X connect 12 0 5 0;
#X coords 0 -1 1 1 145 17 1 250 100;
#X restore 397 357 pd firmware;
#X msg 121 192 devices;
#X msg 121 172 firmware;
#N canvas 0 22 450 300 STRING 0;
#X obj 48 13 inlet;
#X obj 51 93 moocow/string2any 32 -1;
#X obj 51 154 print STRING;
#X connect 0 0 1 0;
#X connect 1 0 2 0;
#X restore 396 409 pd STRING;
#N canvas 205 22 593 390 strings 0;
#X obj -178 287 outlet;
#X obj -142 101 moocow/any2string;
#X symbolatom -92 48 10 0 0 0 - - -;
#X obj -119 179 pddp/print;
#X obj -92 68 list trim;
#X msg -175 39 test;
#X msg -139 40 TEST;
#X obj -142 130 cyclone/prepend string;
#X obj -313 102 moocow/any2string;
#X symbolatom -263 49 10 0 0 0 - - -;
#X obj -314 202 pddp/print;
#X obj -263 69 list trim;
#X msg -346 40 test;
#X msg -310 41 TEST;
#X obj -313 153 cyclone/prepend sysex;
#X obj -313 131 cyclone/prepend 40;
#X msg 66 117 samplingInterval \$1;
#X obj 69 93 hsl 128 15 0 127 0 0 empty empty empty -2 -8 0 10 -262144
-1 -1 0 1;
#X floatatom 27 117 5 0 0 0 - - -;
#X connect 1 0 7 0;
#X connect 2 0 4 0;
#X connect 4 0 1 0;
#X connect 5 0 1 0;
#X connect 6 0 1 0;
#X connect 7 0 3 0;
#X connect 7 0 0 0;
#X connect 8 0 15 0;
#X connect 9 0 11 0;
#X connect 11 0 8 0;
#X connect 12 0 8 0;
#X connect 13 0 8 0;
#X connect 14 0 0 0;
#X connect 14 0 10 0;
#X connect 15 0 14 0;
#X connect 16 0 0 0;
#X connect 17 0 16 0;
#X connect 17 0 18 0;
#X restore 183 245 pd strings and special messages;
#X text 397 503 released under the GNU GPL v2 or later;
#N canvas 626 98 404 287 device 0;
#X obj 35 60 inlet;
#X obj 35 118 route open port ports;
#X obj 35 169 tgl 15 0 empty empty open -3 20 0 10 -262144 -1 -1 0
1;
#X floatatom 76 170 5 0 0 3 port - -;
#X obj 117 170 print comport_ports;
#X obj 252 170 outlet;
#X obj 235 74 receive ARDUINO_TEST_RESET;
#X obj 235 97 bang;
#X connect 0 0 1 0;
#X connect 1 0 2 0;
#X connect 1 1 3 0;
#X connect 1 2 4 0;
#X connect 1 3 5 0;
#X connect 6 0 7 0;
#X connect 7 0 5 0;
#X restore 397 315 pd device info;
#N canvas 0 22 450 300 sysex 0;
#X obj 139 19 inlet;
#X obj 127 109 moocow/string2any 32 -1;
#X obj 127 170 print STRING;
#X obj 97 55 list split 1;
#X obj 40 109 print COMMAND;
#X obj 210 54 print sysex;
#X connect 0 0 3 0;
#X connect 0 0 5 0;
#X connect 1 0 2 0;
#X connect 3 0 4 0;
#X connect 3 1 1 0;
#X restore 461 409 pd sysex;
#X text 489 315 <- open to see info;
#N canvas 0 22 450 300 old 0;
#X msg 95 138 digitalIns 0 0;
#X msg 88 77 analogIns 0 0;
#N canvas 162 133 610 460 serin 0;
#X obj 59 337 outlet;
#X obj 59 266 trigger bang anything;
#X obj 201 286 list;
#X obj 60 61 tgl 15 0 junk_to_hide_inlet ARDUINO_TEST_RESET 0 5 9 1
12 -262130 -1 -1 0 1;
#X obj 75 61 tgl 15 0 junk_to_hide_inlet ARDUINO_TEST_RESET 1 5 9 1
12 -262130 -1 -1 0 1;
#X obj 90 61 tgl 15 0 junk_to_hide_inlet ARDUINO_TEST_RESET 2 5 9 1
12 -262130 -1 -1 0 1;
#X obj 105 61 tgl 15 0 junk_to_hide_inlet ARDUINO_TEST_RESET 3 5 9
1 12 -262130 -1 -1 0 1;
#X obj 120 61 tgl 15 0 junk_to_hide_inlet ARDUINO_TEST_RESET 4 5 9
1 12 -262130 -1 -1 0 1;
#X obj 135 61 tgl 15 0 junk_to_hide_inlet ARDUINO_TEST_RESET 5 5 9
1 12 -262130 -1 -1 0 1;
#X obj 150 61 tgl 15 0 junk_to_hide_inlet ARDUINO_TEST_RESET 6 5 9
1 12 -262130 -1 -1 0 1;
#X obj 165 61 tgl 15 0 junk_to_hide_inlet ARDUINO_TEST_RESET 7 5 9
1 12 -262130 -1 -1 0 1;
#X msg 59 210 analogIns \$1 \$2;
#X msg 35 106 0 \$1;
#X msg 70 106 1 \$1;
#X msg 105 106 2 \$1;
#X msg 140 106 3 \$1;
#X msg 175 106 4 \$1;
#X msg 210 106 5 \$1;
#X msg 245 106 6 \$1;
#X msg 280 106 7 \$1;
#X msg 202 307 set \$1 \$2 \$3;
#X connect 1 0 0 0;
#X connect 1 1 2 0;
#X connect 2 0 20 0;
#X connect 3 0 12 0;
#X connect 4 0 13 0;
#X connect 5 0 14 0;
#X connect 6 0 15 0;
#X connect 7 0 16 0;
#X connect 8 0 17 0;
#X connect 9 0 18 0;
#X connect 10 0 19 0;
#X connect 11 0 1 0;
#X connect 12 0 11 0;
#X connect 13 0 11 0;
#X connect 14 0 11 0;
#X connect 15 0 11 0;
#X connect 16 0 11 0;
#X connect 17 0 11 0;
#X connect 18 0 11 0;
#X connect 19 0 11 0;
#X connect 20 0 0 0;
#X coords 0 -1 1 1 120 16 1 60 60;
#X restore 88 55 pd serin;
#X text 87 38 which analogIns to enable:;
#X text 94 101 which digital ports to enable:;
#N canvas 162 133 610 460 seri 0;
#X obj 59 337 outlet;
#X obj 59 266 trigger bang anything;
#X obj 201 286 list;
#X obj 60 61 tgl 15 0 junk_to_hide_inlet ARDUINO_TEST_RESET 0 5 9 1
12 -260736 -1 -1 0 1;
#X obj 75 61 tgl 15 0 junk_to_hide_inlet ARDUINO_TEST_RESET 1 5 9 1
12 -260736 -1 -1 0 1;
#X obj 90 61 tgl 15 0 junk_to_hide_inlet ARDUINO_TEST_RESET 2 5 9 1
12 -260736 -1 -1 0 1;
#X msg 35 106 0 \$1;
#X msg 70 106 1 \$1;
#X msg 105 106 2 \$1;
#X msg 202 307 set \$1 \$2 \$3;
#X msg 59 210 digitalIns \$1 \$2;
#X connect 1 0 0 0;
#X connect 1 1 2 0;
#X connect 2 0 9 0;
#X connect 3 0 6 0;
#X connect 4 0 7 0;
#X connect 5 0 8 0;
#X connect 6 0 10 0;
#X connect 7 0 10 0;
#X connect 8 0 10 0;
#X connect 9 0 0 0;
#X connect 10 0 1 0;
#X coords 0 -1 1 1 45 16 1 60 60;
#X restore 95 118 pd seri;
#X obj 42 179 outlet;
#X connect 0 0 6 0;
#X connect 1 0 6 0;
#X connect 2 0 1 0;
#X connect 5 0 0 0;
#X restore 183 222 pd old analog/digital controls;
#X text 185 150 <-- get protocol version;
#X text 185 170 <-- get firmware name and version;
#X text 185 131 <-- get connection info;
#X text 181 291 <-- argument sets port #;
#X text 8 1 The [arduino] object works with the Firmata firmware.;
#X text 185 190 <-- list available serial devices;
#X text 9 389 analog inputs:;
#X obj 121 324 route analog digital string sysex;
#X msg 28 92 open 2;
#X text 203 477 comment;
#X text 354 47 Requires libraries in Pd-extended "arduino" object from
Firmata 2.2 (in Pduino-0.5);
#X text 354 107 How to use: 1) click on "firmware" to verify Firmata
on arduino (e.g."SimpleAnalogFirmata.ino-2.4") 2) click "devices" to
find available ports \, one of which will be USB 3) twiddle knobs and
reconnect noodles to taste;
#X connect 1 0 37 0;
#X connect 1 1 3 0;
#X connect 3 0 18 0;
#X connect 10 0 18 0;
#X connect 11 0 18 0;
#X connect 14 0 15 0;
#X connect 14 1 15 1;
#X connect 14 2 15 2;
#X connect 14 3 15 3;
#X connect 14 4 15 4;
#X connect 14 5 15 5;
#X connect 14 6 15 6;
#X connect 14 7 15 7;
#X connect 15 0 4 0;
#X connect 15 1 5 0;
#X connect 15 2 6 0;
#X connect 15 3 7 0;
#X connect 15 4 8 0;
#X connect 15 5 9 0;
#X connect 15 6 12 0;
#X connect 15 7 13 0;
#X connect 17 0 19 0;
#X connect 18 0 36 0;
#X connect 18 1 25 0;
#X connect 20 0 18 0;
#X connect 21 0 18 0;
#X connect 23 0 18 0;
#X connect 25 0 17 0;
#X connect 28 0 18 0;
#X connect 36 0 14 0;
#X connect 36 2 22 0;
#X connect 36 3 26 0;
#X connect 37 0 18 0;
