#N canvas 65 47 1367 788 10;
#X obj 1015 201 noise~;
#X obj 680 278 lop~ 50;
#X obj 678 300 lop~ 50;
#X obj 679 324 lop~ 50;
#X obj 678 347 lop~ 50;
#X obj 986 720 dac~;
#X obj 745 280 hip~ 50;
#X obj 745 302 hip~ 50;
#X obj 745 324 hip~ 50;
#X obj 745 346 hip~ 50;
#X obj 746 369 lop~ 250;
#X obj 745 391 lop~ 250;
#X obj 746 415 lop~ 250;
#X obj 745 438 lop~ 250;
#X obj 816 281 hip~ 250;
#X obj 816 303 hip~ 250;
#X obj 816 325 hip~ 250;
#X obj 816 347 hip~ 250;
#X obj 817 370 lop~ 500;
#X obj 816 392 lop~ 500;
#X obj 817 416 lop~ 500;
#X obj 816 440 lop~ 500;
#X obj 908 280 hip~ 500;
#X obj 908 302 hip~ 500;
#X obj 908 324 hip~ 500;
#X obj 908 346 hip~ 500;
#X obj 908 369 lop~ 1000;
#X obj 908 391 lop~ 1000;
#X obj 909 415 lop~ 1000;
#X obj 908 439 lop~ 1000;
#X obj 990 277 hip~ 1000;
#X obj 990 299 hip~ 1000;
#X obj 990 321 hip~ 1000;
#X obj 990 343 hip~ 1000;
#X obj 990 366 lop~ 3000;
#X obj 990 388 lop~ 3000;
#X obj 991 412 lop~ 3000;
#X obj 990 436 lop~ 3000;
#X obj 1070 277 hip~ 3000;
#X obj 1070 299 hip~ 3000;
#X obj 1070 320 hip~ 3000;
#X obj 1070 343 hip~ 3000;
#X obj 1070 366 lop~ 7000;
#X obj 1070 388 lop~ 7000;
#X obj 1071 412 lop~ 7000;
#X obj 1070 436 lop~ 7000;
#X obj 1150 276 hip~ 7000;
#X obj 1150 298 hip~ 7000;
#X obj 1150 319 hip~ 7000;
#X obj 1150 342 hip~ 7000;
#X obj 1150 365 lop~ 15000;
#X obj 1150 387 lop~ 15000;
#X obj 1150 411 lop~ 15000;
#X obj 1150 435 lop~ 15000;
#X obj 1243 274 hip~ 15000;
#X obj 1243 296 hip~ 15000;
#X obj 1243 317 hip~ 15000;
#X obj 1243 340 hip~ 15000;
#X obj 1243 363 lop~ 20000;
#X obj 1243 385 lop~ 20000;
#X obj 1243 409 lop~ 20000;
#X obj 1243 433 lop~ 20000;
#X obj 702 480 vsl 15 128 0 20 0 0 empty empty empty 0 -8 0 8 -33289
-262144 -1 0 1;
#X obj 767 479 vsl 15 128 0 2 0 0 empty empty empty 0 -8 0 8 -90881
-262144 -1 0 1;
#X obj 840 478 vsl 15 128 0 1 0 0 empty empty empty 0 -8 0 8 -258699
-262144 -1 0 1;
#X obj 944 477 vsl 15 128 0 0.9 0 0 empty empty empty 0 -8 0 8 -260818
-262144 -1 0 1;
#X obj 1026 475 vsl 15 128 0 0.7 0 0 empty empty empty 0 -8 0 8 -241291
-262144 -1 0 1;
#X obj 988 686 *~ 0.5;
#X obj 1108 475 vsl 15 128 0 0.5 0 0 empty empty empty 0 -8 0 8 -24198
-262144 -1 0 1;
#X obj 1188 474 vsl 15 128 0 0.1 0 0 empty empty empty 0 -8 0 8 -62784
-262144 -1 0 1;
#X obj 1286 470 vsl 15 128 0 0.15 0 0 empty empty empty 0 -8 0 8 -250685
-262144 -1 0 1;
#X obj 679 618 *~;
#X obj 744 617 *~;
#X obj 817 616 *~;
#X obj 989 613 *~;
#X obj 907 615 *~;
#X obj 1071 613 *~;
#X obj 1151 612 *~;
#X obj 1242 608 *~;
#X text 443 12 Noise colours;
#X obj 43 53 cnv 15 60 22 empty empty empty 20 12 0 14 -253938 -66577
0;
#N canvas 146 163 525 433 serin 0;
#X obj 180 61 cnv 15 15 15 empty \$0-number-canvas 2 4 8 0 14 -233017
-1 0;
#X obj 200 225 s \$0-number-canvas;
#X obj 60 61 hradio 15 1 1 8 empty empty empty 0 -6 0 8 -225271 -1
-1 2;
#X obj 60 13 inlet;
#X msg 200 202 label \$1;
#X obj 200 180 makefilename %d;
#X obj 59 108 int;
#X msg 59 206 open \$1;
#X obj 59 377 outlet;
#X msg 201 306 set \$1 \$2;
#X obj 59 266 trigger bang anything;
#X obj 201 286 list;
#X obj 383 383 outlet;
#X obj 384 22 netreceive 34567;
#X obj 477 43 tgl 15 0 empty empty empty 0 -6 0 10 -262144 -1 -1 0
1;
#X obj 384 41 bng 15 250 50 0 empty empty empty 0 -6 0 10 -262144 -1
-1;
#X obj 187 24 delay 15000;
#X text 345 379 close;
#X text 209 4 for open/close automation in Makefile;
#X obj 184 95 bang;
#X obj 184 137 send ARDUINO_TEST_RESET;
#X msg 184 116 set 0;
#X connect 2 0 6 0;
#X connect 2 0 19 0;
#X connect 3 0 2 0;
#X connect 4 0 1 0;
#X connect 5 0 4 0;
#X connect 6 0 5 0;
#X connect 6 0 7 0;
#X connect 7 0 10 0;
#X connect 9 0 8 0;
#X connect 10 0 8 0;
#X connect 10 1 11 0;
#X connect 11 0 9 0;
#X connect 13 0 15 0;
#X connect 13 1 14 0;
#X connect 15 0 16 0;
#X connect 15 0 12 0;
#X connect 16 0 2 0;
#X connect 19 0 21 0;
#X connect 21 0 20 0;
#X coords 0 -1 1 1 136 17 1 60 60;
#X restore 49 32 pd serin;
#X text 46 14 serial port #;
#X msg 109 55 close;
#X floatatom 43 409 5 0 0 3 a0 - -;
#X floatatom 89 409 5 0 0 3 a1 - -;
#X floatatom 135 409 5 0 0 3 a2 - -;
#X floatatom 181 409 5 0 0 3 a3 - -;
#X floatatom 227 409 5 0 0 3 a4 - -;
#X floatatom 273 409 5 0 0 3 a5 - -;
#X msg 142 95 info;
#X msg 142 115 version;
#X floatatom 319 409 5 0 0 3 a6 - -;
#X floatatom 365 409 5 0 0 3 a7 - -;
#X obj 142 352 route 0 1 2 3 4 5 6 7;
#N canvas 981 48 499 396 display 0;
#X obj 6 7 inlet;
#X obj 6 28 mapping/resample 100;
#X obj 6 50 outlet;
#X obj 54 50 inlet;
#X obj 54 71 mapping/resample 100;
#X obj 54 93 outlet;
#X obj 103 93 inlet;
#X obj 103 114 mapping/resample 100;
#X obj 103 136 outlet;
#X obj 151 136 inlet;
#X obj 151 157 mapping/resample 100;
#X obj 151 179 outlet;
#X obj 200 179 inlet;
#X obj 200 200 mapping/resample 100;
#X obj 200 222 outlet;
#X obj 247 222 inlet;
#X obj 247 243 mapping/resample 100;
#X obj 247 265 outlet;
#X obj 295 265 inlet;
#X obj 295 286 mapping/resample 100;
#X obj 295 308 outlet;
#X obj 345 308 inlet;
#X obj 345 329 mapping/resample 100;
#X obj 345 351 outlet;
#X obj 60 290 receive ARDUINO_TEST_RESET;
#X connect 0 0 1 0;
#X connect 1 0 2 0;
#X connect 3 0 4 0;
#X connect 4 0 5 0;
#X connect 6 0 7 0;
#X connect 7 0 8 0;
#X connect 9 0 10 0;
#X connect 10 0 11 0;
#X connect 12 0 13 0;
#X connect 13 0 14 0;
#X connect 15 0 16 0;
#X connect 16 0 17 0;
#X connect 18 0 19 0;
#X connect 19 0 20 0;
#X connect 21 0 22 0;
#X connect 22 0 23 0;
#X connect 24 0 22 0;
#X connect 24 0 19 0;
#X connect 24 0 16 0;
#X connect 24 0 13 0;
#X connect 24 0 10 0;
#X connect 24 0 7 0;
#X connect 24 0 4 0;
#X connect 24 0 1 0;
#X restore 66 383 pd display values without pegging the CPU;
#N canvas 3 48 451 224 ver 0;
#X obj 23 7 inlet;
#X obj 250 100 cnv 15 145 17 empty \$0-version_cnv empty 4 10 0 12
-203904 -1 0;
#X obj 23 157 send \$0-version_cnv;
#X msg 23 132 label \$1;
#X obj 48 103 symbol;
#X obj 38 77 loadbang;
#X msg 96 78 bang;
#X obj 309 163 outlet;
#X obj 23 52 zexy/makesymbol Firmata-%s.%s;
#X obj 23 29 route version bang;
#X connect 0 0 9 0;
#X connect 3 0 2 0;
#X connect 4 0 3 0;
#X connect 5 0 4 0;
#X connect 6 0 4 0;
#X connect 8 0 3 0;
#X connect 9 0 8 0;
#X connect 9 1 7 0;
#X connect 9 1 6 0;
#X connect 9 2 7 0;
#X coords 0 -1 1 1 145 17 1 250 100;
#X restore 418 300 pd ver;
#X obj 142 255 arduino 1;
#N canvas 649 518 411 212 firmware 0;
#X obj 123 2 inlet;
#X obj 250 100 cnv 15 145 17 empty \$0-firmware_cnv SimpleAnalogFirmata.ino-2.4
4 10 0 12 -232576 -66577 0;
#X msg 123 156 label \$1;
#X obj 148 127 symbol;
#X obj 138 101 loadbang;
#X msg 196 102 bang;
#X obj 123 181 send \$0-firmware_cnv;
#X obj 123 24 route firmware;
#X obj 18 181 print Firmware;
#X obj 123 49 list;
#X obj 123 80 zexy/makesymbol %s-%s.%s;
#X obj 18 151 list trim;
#X obj 204 45 route bang;
#X connect 0 0 7 0;
#X connect 2 0 6 0;
#X connect 3 0 2 0;
#X connect 4 0 3 0;
#X connect 5 0 3 0;
#X connect 7 0 9 0;
#X connect 7 1 12 0;
#X connect 9 0 10 0;
#X connect 10 0 2 0;
#X connect 10 0 11 0;
#X connect 11 0 8 0;
#X connect 12 0 5 0;
#X coords 0 -1 1 1 145 17 1 250 100;
#X restore 418 320 pd firmware;
#X msg 142 155 devices;
#X msg 142 135 firmware;
#N canvas 0 22 450 300 STRING 0;
#X obj 48 13 inlet;
#X obj 51 93 moocow/string2any 32 -1;
#X obj 51 154 print STRING;
#X connect 0 0 1 0;
#X connect 1 0 2 0;
#X restore 417 372 pd STRING;
#N canvas 205 22 593 390 strings 0;
#X obj -178 287 outlet;
#X obj -142 101 moocow/any2string;
#X symbolatom -92 48 10 0 0 0 - - -;
#X obj -119 179 pddp/print;
#X obj -92 68 list trim;
#X msg -175 39 test;
#X msg -139 40 TEST;
#X obj -142 130 cyclone/prepend string;
#X obj -313 102 moocow/any2string;
#X symbolatom -263 49 10 0 0 0 - - -;
#X obj -314 202 pddp/print;
#X obj -263 69 list trim;
#X msg -346 40 test;
#X msg -310 41 TEST;
#X obj -313 153 cyclone/prepend sysex;
#X obj -313 131 cyclone/prepend 40;
#X msg 66 117 samplingInterval \$1;
#X obj 69 93 hsl 128 15 0 127 0 0 empty empty empty -2 -8 0 10 -262144
-1 -1 0 1;
#X floatatom 27 117 5 0 0 0 - - -;
#X connect 1 0 7 0;
#X connect 2 0 4 0;
#X connect 4 0 1 0;
#X connect 5 0 1 0;
#X connect 6 0 1 0;
#X connect 7 0 3 0;
#X connect 7 0 0 0;
#X connect 8 0 15 0;
#X connect 9 0 11 0;
#X connect 11 0 8 0;
#X connect 12 0 8 0;
#X connect 13 0 8 0;
#X connect 14 0 0 0;
#X connect 14 0 10 0;
#X connect 15 0 14 0;
#X connect 16 0 0 0;
#X connect 17 0 16 0;
#X connect 17 0 18 0;
#X restore 204 208 pd strings and special messages;
#N canvas 626 98 404 287 device 0;
#X obj 35 60 inlet;
#X obj 35 118 route open port ports;
#X obj 35 169 tgl 15 0 empty empty open -3 20 0 10 -262144 -1 -1 1
1;
#X floatatom 76 170 5 0 0 3 port - -;
#X obj 117 170 print comport_ports;
#X obj 252 170 outlet;
#X obj 235 74 receive ARDUINO_TEST_RESET;
#X obj 235 97 bang;
#X connect 0 0 1 0;
#X connect 1 0 2 0;
#X connect 1 1 3 0;
#X connect 1 2 4 0;
#X connect 1 3 5 0;
#X connect 6 0 7 0;
#X connect 7 0 5 0;
#X restore 418 278 pd device info;
#N canvas 0 22 450 300 sysex 0;
#X obj 139 19 inlet;
#X obj 127 109 moocow/string2any 32 -1;
#X obj 127 170 print STRING;
#X obj 97 55 list split 1;
#X obj 40 109 print COMMAND;
#X obj 210 54 print sysex;
#X connect 0 0 3 0;
#X connect 0 0 5 0;
#X connect 1 0 2 0;
#X connect 3 0 4 0;
#X connect 3 1 1 0;
#X restore 482 372 pd sysex;
#X text 510 278 <- open to see info;
#N canvas 0 22 450 300 old 0;
#X msg 95 138 digitalIns 0 0;
#X msg 88 77 analogIns 0 0;
#N canvas 162 133 610 460 serin 0;
#X obj 59 337 outlet;
#X obj 59 266 trigger bang anything;
#X obj 201 286 list;
#X obj 60 61 tgl 15 0 junk_to_hide_inlet ARDUINO_TEST_RESET 0 5 9 1
12 -262130 -1 -1 0 1;
#X obj 75 61 tgl 15 0 junk_to_hide_inlet ARDUINO_TEST_RESET 1 5 9 1
12 -262130 -1 -1 0 1;
#X obj 90 61 tgl 15 0 junk_to_hide_inlet ARDUINO_TEST_RESET 2 5 9 1
12 -262130 -1 -1 0 1;
#X obj 105 61 tgl 15 0 junk_to_hide_inlet ARDUINO_TEST_RESET 3 5 9
1 12 -262130 -1 -1 0 1;
#X obj 120 61 tgl 15 0 junk_to_hide_inlet ARDUINO_TEST_RESET 4 5 9
1 12 -262130 -1 -1 0 1;
#X obj 135 61 tgl 15 0 junk_to_hide_inlet ARDUINO_TEST_RESET 5 5 9
1 12 -262130 -1 -1 0 1;
#X obj 150 61 tgl 15 0 junk_to_hide_inlet ARDUINO_TEST_RESET 6 5 9
1 12 -262130 -1 -1 0 1;
#X obj 165 61 tgl 15 0 junk_to_hide_inlet ARDUINO_TEST_RESET 7 5 9
1 12 -262130 -1 -1 0 1;
#X msg 59 210 analogIns \$1 \$2;
#X msg 35 106 0 \$1;
#X msg 70 106 1 \$1;
#X msg 105 106 2 \$1;
#X msg 140 106 3 \$1;
#X msg 175 106 4 \$1;
#X msg 210 106 5 \$1;
#X msg 245 106 6 \$1;
#X msg 280 106 7 \$1;
#X msg 202 307 set \$1 \$2 \$3;
#X connect 1 0 0 0;
#X connect 1 1 2 0;
#X connect 2 0 20 0;
#X connect 3 0 12 0;
#X connect 4 0 13 0;
#X connect 5 0 14 0;
#X connect 6 0 15 0;
#X connect 7 0 16 0;
#X connect 8 0 17 0;
#X connect 9 0 18 0;
#X connect 10 0 19 0;
#X connect 11 0 1 0;
#X connect 12 0 11 0;
#X connect 13 0 11 0;
#X connect 14 0 11 0;
#X connect 15 0 11 0;
#X connect 16 0 11 0;
#X connect 17 0 11 0;
#X connect 18 0 11 0;
#X connect 19 0 11 0;
#X connect 20 0 0 0;
#X coords 0 -1 1 1 120 16 1 60 60;
#X restore 88 55 pd serin;
#X text 87 38 which analogIns to enable:;
#X text 94 101 which digital ports to enable:;
#N canvas 162 133 610 460 seri 0;
#X obj 59 337 outlet;
#X obj 59 266 trigger bang anything;
#X obj 201 286 list;
#X obj 60 61 tgl 15 0 junk_to_hide_inlet ARDUINO_TEST_RESET 0 5 9 1
12 -260736 -1 -1 0 1;
#X obj 75 61 tgl 15 0 junk_to_hide_inlet ARDUINO_TEST_RESET 1 5 9 1
12 -260736 -1 -1 0 1;
#X obj 90 61 tgl 15 0 junk_to_hide_inlet ARDUINO_TEST_RESET 2 5 9 1
12 -260736 -1 -1 0 1;
#X msg 35 106 0 \$1;
#X msg 70 106 1 \$1;
#X msg 105 106 2 \$1;
#X msg 202 307 set \$1 \$2 \$3;
#X msg 59 210 digitalIns \$1 \$2;
#X connect 1 0 0 0;
#X connect 1 1 2 0;
#X connect 2 0 9 0;
#X connect 3 0 6 0;
#X connect 4 0 7 0;
#X connect 5 0 8 0;
#X connect 6 0 10 0;
#X connect 7 0 10 0;
#X connect 8 0 10 0;
#X connect 9 0 0 0;
#X connect 10 0 1 0;
#X coords 0 -1 1 1 45 16 1 60 60;
#X restore 95 118 pd seri;
#X obj 42 179 outlet;
#X connect 0 0 6 0;
#X connect 1 0 6 0;
#X connect 2 0 1 0;
#X connect 5 0 0 0;
#X restore 204 185 pd old analog/digital controls;
#X text 206 113 <-- get protocol version;
#X text 206 133 <-- get firmware name and version;
#X text 206 94 <-- get connection info;
#X text 202 254 <-- argument sets port #;
#X text 206 153 <-- list available serial devices;
#X text 30 352 analog inputs:;
#X obj 142 287 route analog digital string sysex;
#X msg 49 55 open 2;
#X text 224 440 comment;
#X text 443 32 Requires libraries in Pd-extended "arduino" object from
Firmata 2.2 (in Pduino-0.5);
#X text 443 92 How to use: 1) click on "firmware" to verify Firmata
on arduino (e.g."SimpleAnalogFirmata.ino-2.4") 2) click "devices" to
find available ports \, one of which will be USB 3) twiddle knobs and
reconnect noodles to taste;
#X connect 0 0 1 0;
#X connect 0 0 6 0;
#X connect 0 0 14 0;
#X connect 0 0 22 0;
#X connect 0 0 30 0;
#X connect 0 0 38 0;
#X connect 0 0 46 0;
#X connect 0 0 54 0;
#X connect 1 0 2 0;
#X connect 2 0 3 0;
#X connect 3 0 4 0;
#X connect 4 0 71 0;
#X connect 6 0 7 0;
#X connect 7 0 8 0;
#X connect 8 0 9 0;
#X connect 9 0 10 0;
#X connect 10 0 11 0;
#X connect 11 0 12 0;
#X connect 12 0 13 0;
#X connect 13 0 72 0;
#X connect 14 0 15 0;
#X connect 15 0 16 0;
#X connect 16 0 17 0;
#X connect 17 0 18 0;
#X connect 18 0 19 0;
#X connect 19 0 20 0;
#X connect 20 0 21 0;
#X connect 21 0 73 0;
#X connect 22 0 23 0;
#X connect 23 0 24 0;
#X connect 24 0 25 0;
#X connect 25 0 26 0;
#X connect 26 0 27 0;
#X connect 27 0 28 0;
#X connect 28 0 29 0;
#X connect 29 0 75 0;
#X connect 30 0 31 0;
#X connect 31 0 32 0;
#X connect 32 0 33 0;
#X connect 33 0 34 0;
#X connect 34 0 35 0;
#X connect 35 0 36 0;
#X connect 36 0 37 0;
#X connect 37 0 74 0;
#X connect 38 0 39 0;
#X connect 39 0 40 0;
#X connect 40 0 41 0;
#X connect 41 0 42 0;
#X connect 42 0 43 0;
#X connect 43 0 44 0;
#X connect 44 0 45 0;
#X connect 45 0 76 0;
#X connect 46 0 47 0;
#X connect 47 0 48 0;
#X connect 48 0 49 0;
#X connect 49 0 50 0;
#X connect 50 0 51 0;
#X connect 51 0 52 0;
#X connect 52 0 53 0;
#X connect 53 0 77 0;
#X connect 54 0 55 0;
#X connect 55 0 56 0;
#X connect 56 0 57 0;
#X connect 57 0 58 0;
#X connect 58 0 59 0;
#X connect 59 0 60 0;
#X connect 60 0 61 0;
#X connect 61 0 78 0;
#X connect 62 0 71 1;
#X connect 63 0 72 1;
#X connect 64 0 73 1;
#X connect 65 0 75 1;
#X connect 66 0 74 1;
#X connect 67 0 5 0;
#X connect 67 0 5 1;
#X connect 68 0 76 1;
#X connect 69 0 77 1;
#X connect 70 0 78 1;
#X connect 71 0 67 0;
#X connect 72 0 67 0;
#X connect 73 0 67 0;
#X connect 74 0 67 0;
#X connect 75 0 67 0;
#X connect 76 0 67 0;
#X connect 77 0 67 0;
#X connect 78 0 67 0;
#X connect 81 0 114 0;
#X connect 81 1 83 0;
#X connect 83 0 97 0;
#X connect 84 0 69 0;
#X connect 85 0 70 0;
#X connect 86 0 62 0;
#X connect 87 0 68 0;
#X connect 88 0 63 0;
#X connect 89 0 66 0;
#X connect 90 0 97 0;
#X connect 91 0 97 0;
#X connect 92 0 64 0;
#X connect 93 0 65 0;
#X connect 94 0 95 0;
#X connect 94 1 95 1;
#X connect 94 2 95 2;
#X connect 94 3 95 3;
#X connect 94 4 95 4;
#X connect 94 5 95 5;
#X connect 94 6 95 6;
#X connect 94 7 95 7;
#X connect 95 0 84 0;
#X connect 95 1 85 0;
#X connect 95 2 86 0;
#X connect 95 3 87 0;
#X connect 95 4 88 0;
#X connect 95 5 89 0;
#X connect 95 6 92 0;
#X connect 95 7 93 0;
#X connect 96 0 98 0;
#X connect 97 0 113 0;
#X connect 97 1 103 0;
#X connect 99 0 97 0;
#X connect 100 0 97 0;
#X connect 102 0 97 0;
#X connect 103 0 96 0;
#X connect 106 0 97 0;
#X connect 113 0 94 0;
#X connect 113 2 101 0;
#X connect 113 3 104 0;
#X connect 114 0 97 0;
